<svg width="24" height="24" viewBox="0 0 24 24" fill="none" xmlns="http://www.w3.org/2000/svg">
<path d="M7.8 2H16.2C17.7383 2 19.2135 2.61107 20.3012 3.69878C21.3889 4.78649 22 6.26174 22 7.8V16.2C22 17.7383 21.3889 19.2135 20.3012 20.3012C19.2135 21.3889 17.7383 22 16.2 22H7.8C6.26174 22 4.78649 21.3889 3.69878 20.3012C2.61107 19.2135 2 17.7383 2 16.2V7.8C2 6.26174 2.61107 4.78649 3.69878 3.69878C4.78649 2.61107 6.26174 2 7.8 2ZM7.6 4C6.64522 4 5.72955 4.37928 5.05442 5.05442C4.37928 5.72955 4 6.64522 4 7.6V16.4C4 17.3548 4.37928 18.2705 5.05442 18.9456C5.72955 19.6207 6.64522 20 7.6 20H16.4C17.3548 20 18.2705 19.6207 18.9456 18.9456C19.6207 18.2705 20 17.3548 20 16.4V7.6C20 6.64522 19.6207 5.72955 18.9456 5.05442C18.2705 4.37928 17.3548 4 16.4 4H7.6ZM17.25 5.5C17.4972 5.5 17.7389 5.57331 17.9445 5.71066C18.15 5.84801 18.3102 6.04324 18.4049 6.27165C18.4995 6.50005 18.5242 6.75139 18.476 6.99386C18.4277 7.23634 18.3087 7.45907 18.1339 7.63388C17.9591 7.8087 17.7363 7.92775 17.4939 7.97598C17.2514 8.02421 17.0001 7.99946 16.7716 7.90485C16.5432 7.81024 16.348 7.65002 16.2107 7.44446C16.0733 7.2389 16 6.99723 16 6.75C16 6.41848 16.1317 6.10054 16.3661 5.86612C16.6005 5.6317 16.9185 5.5 17.25 5.5ZM12 7C12.9889 7 13.9556 7.29324 14.7779 7.84265C15.6001 8.39206 16.241 9.17295 16.6194 10.0866C16.9978 11.0002 17.0969 12.0055 16.9039 12.9755C16.711 13.9454 16.2348 14.8363 15.5355 15.5355C14.8363 16.2348 13.9454 16.711 12.9755 16.9039C12.0055 17.0969 11.0002 16.9978 10.0866 16.6194C9.17295 16.241 8.39206 15.6001 7.84265 14.7779C7.29324 13.9556 7 12.9889 7 12C7 10.6739 7.52678 9.40215 8.46447 8.46447C9.40215 7.52678 10.6739 7 12 7ZM12 9C11.4067 9 10.8266 9.17595 10.3333 9.50559C9.83994 9.83524 9.45542 10.3038 9.22836 10.8519C9.0013 11.4001 8.94189 12.0033 9.05764 12.5853C9.1734 13.1672 9.45912 13.7018 9.87868 14.1213C10.2982 14.5409 10.8328 14.8266 11.4147 14.9424C11.9967 15.0581 12.5999 14.9987 13.1481 14.7716C13.6962 14.5446 14.1648 14.1601 14.4944 13.6667C14.8241 13.1734 15 12.5933 15 12C15 11.2044 14.6839 10.4413 14.1213 9.87868C13.5587 9.31607 12.7956 9 12 9Z" fill="#21695C"/>
</svg>
