<svg width="24" height="24" viewBox="0 0 24 24" fill="none" xmlns="http://www.w3.org/2000/svg">
<path d="M10.0001 15L15.1901 12L10.0001 8.99996V15ZM21.5601 7.16996C21.7122 7.79323 21.8059 8.42931 21.8401 9.06996C21.9101 9.86996 21.9401 10.56 21.9401 11.16L22.0001 12C22.0512 13.6219 21.9035 15.244 21.5601 16.83C21.4591 17.2497 21.2441 17.6334 20.9388 17.9387C20.6336 18.244 20.2499 18.459 19.8301 18.56C18.9576 18.7367 18.0703 18.8305 17.1801 18.84C15.8801 18.91 14.6901 18.94 13.5901 18.94L12.0001 19C9.38203 19.1042 6.76 18.9569 4.1701 18.56C3.75034 18.459 3.36664 18.244 3.06136 17.9387C2.75608 17.6334 2.54108 17.2497 2.4401 16.83C2.28802 16.2067 2.19428 15.5706 2.1601 14.93C2.0901 14.13 2.0601 13.44 2.0601 12.84L2.0001 12C1.94897 10.378 2.09674 8.75595 2.4401 7.16996C2.54108 6.7502 2.75608 6.3665 3.06136 6.06122C3.36664 5.75594 3.75034 5.54094 4.1701 5.43996C5.04261 5.26318 5.92991 5.16943 6.8201 5.15996C8.1201 5.08996 9.3101 5.05996 10.4101 5.05996L12.0001 4.99996C14.6182 4.89568 17.2402 5.04302 19.8301 5.43996C20.2499 5.54094 20.6336 5.75594 20.9388 6.06122C21.2441 6.3665 21.4591 6.7502 21.5601 7.16996Z" fill="#21695C"/>
</svg>
